<mxfile host="app.diagrams.net" agent="Mozilla/5.0 (Windows NT 10.0; Win64; x64) AppleWebKit/537.36 (KHTML, like Gecko) Chrome/135.0.0.0 Safari/537.36 Edg/135.0.0.0" version="26.2.13" pages="2">
  <diagram name="ERD" id="ERD">
    <mxGraphModel dx="1100" dy="580" grid="1" gridSize="10" guides="1" tooltips="1" connect="1" arrows="1" fold="1" page="1" pageScale="1" pageWidth="1169" pageHeight="827" math="0" shadow="0">
      <root>
        <mxCell id="0" />
        <mxCell id="erd_root" parent="0" />
        <mxCell id="erd_user" value="USER" style="whiteSpace=wrap;html=1;fillColor=#dae8fc;strokeColor=#6c8ebf;" parent="erd_root" vertex="1">
          <mxGeometry x="400" y="100" width="120" height="60" as="geometry" />
        </mxCell>
        <mxCell id="erd_category" value="CATEGORY" style="whiteSpace=wrap;html=1;fillColor=#d5e8d4;strokeColor=#82b366;" parent="erd_root" vertex="1">
          <mxGeometry x="80" y="310" width="120" height="60" as="geometry" />
        </mxCell>
        <mxCell id="erd_item" value="ITEM" style="whiteSpace=wrap;html=1;fillColor=#ffe6cc;strokeColor=#d79b00;" parent="erd_root" vertex="1">
          <mxGeometry x="400" y="300" width="120" height="60" as="geometry" />
        </mxCell>
        <mxCell id="erd_stockmovement" value="STOCK&#xa;MOVEMENT" style="whiteSpace=wrap;html=1;fillColor=#f8cecc;strokeColor=#b85450;" parent="erd_root" vertex="1">
          <mxGeometry x="760" y="130" width="120" height="60" as="geometry" />
        </mxCell>
        <mxCell id="erd_report" value="REPORT" style="whiteSpace=wrap;html=1;fillColor=#e1d5e7;strokeColor=#9673a6;" parent="erd_root" vertex="1">
          <mxGeometry x="20" y="120" width="120" height="60" as="geometry" />
        </mxCell>
        <mxCell id="erd_userid" value="USER&#xa;ID" style="ellipse;whiteSpace=wrap;html=1;fillColor=#dae8fc;strokeColor=#6c8ebf;" parent="erd_root" vertex="1">
          <mxGeometry x="320" y="40" width="80" height="40" as="geometry" />
        </mxCell>
        <mxCell id="erd_email" value="EMAIL" style="ellipse;whiteSpace=wrap;html=1;fillColor=#dae8fc;strokeColor=#6c8ebf;" parent="erd_root" vertex="1">
          <mxGeometry x="520" y="40" width="80" height="40" as="geometry" />
        </mxCell>
        <mxCell id="erd_categoryid" value="CATEGORY&#xa;ID" style="ellipse;whiteSpace=wrap;html=1;fillColor=#d5e8d4;strokeColor=#82b366;" parent="erd_root" vertex="1">
          <mxGeometry x="50" y="250" width="80" height="40" as="geometry" />
        </mxCell>
        <mxCell id="erd_categoryname" value="NAME" style="ellipse;whiteSpace=wrap;html=1;fillColor=#d5e8d4;strokeColor=#82b366;" parent="erd_root" vertex="1">
          <mxGeometry x="160" y="250" width="80" height="40" as="geometry" />
        </mxCell>
        <mxCell id="erd_itemid" value="ITEM&#xa;ID" style="ellipse;whiteSpace=wrap;html=1;fillColor=#ffe6cc;strokeColor=#d79b00;" parent="erd_root" vertex="1">
          <mxGeometry x="320" y="240" width="80" height="40" as="geometry" />
        </mxCell>
        <mxCell id="erd_itemname" value="NAME" style="ellipse;whiteSpace=wrap;html=1;fillColor=#ffe6cc;strokeColor=#d79b00;" parent="erd_root" vertex="1">
          <mxGeometry x="545" y="330" width="80" height="40" as="geometry" />
        </mxCell>
        <mxCell id="erd_quantity" value="QUANTITY" style="ellipse;whiteSpace=wrap;html=1;fillColor=#ffe6cc;strokeColor=#d79b00;" parent="erd_root" vertex="1">
          <mxGeometry x="520" y="240" width="80" height="40" as="geometry" />
        </mxCell>
        <mxCell id="erd_manages" value="MANAGES" style="rhombus;whiteSpace=wrap;html=1;fillColor=#dae8fc;strokeColor=#6c8ebf;" parent="erd_root" vertex="1">
          <mxGeometry x="400" y="200" width="120" height="80" as="geometry" />
        </mxCell>
        <mxCell id="erd_contains" value="CONTAINS" style="rhombus;whiteSpace=wrap;html=1;fillColor=#d5e8d4;strokeColor=#82b366;" parent="erd_root" vertex="1">
          <mxGeometry x="240" y="300" width="120" height="80" as="geometry" />
        </mxCell>
        <mxCell id="erd_performs" value="PERFORMS" style="rhombus;whiteSpace=wrap;html=1;fillColor=#f8cecc;strokeColor=#b85450;" parent="erd_root" vertex="1">
          <mxGeometry x="600" y="110" width="120" height="80" as="geometry" />
        </mxCell>
        <mxCell id="erd_generates" value="GENERATES" style="rhombus;whiteSpace=wrap;html=1;fillColor=#e1d5e7;strokeColor=#9673a6;" parent="erd_root" vertex="1">
          <mxGeometry x="160" y="110" width="120" height="80" as="geometry" />
        </mxCell>
        <mxCell id="erd_conn_userid" value="" style="endArrow=none;html=1;rounded=0;" parent="erd_root" source="erd_user" target="erd_userid" edge="1">
          <mxGeometry relative="1" as="geometry" />
        </mxCell>
        <mxCell id="erd_conn_email" value="" style="endArrow=none;html=1;rounded=0;" parent="erd_root" source="erd_user" target="erd_email" edge="1">
          <mxGeometry relative="1" as="geometry" />
        </mxCell>
        <mxCell id="erd_conn_categoryid" value="" style="endArrow=none;html=1;rounded=0;" parent="erd_root" source="erd_category" target="erd_categoryid" edge="1">
          <mxGeometry relative="1" as="geometry" />
        </mxCell>
        <mxCell id="erd_conn_categoryname" value="" style="endArrow=none;html=1;rounded=0;" parent="erd_root" source="erd_category" target="erd_categoryname" edge="1">
          <mxGeometry relative="1" as="geometry" />
        </mxCell>
        <mxCell id="erd_conn_itemid" value="" style="endArrow=none;html=1;rounded=0;" parent="erd_root" source="erd_item" target="erd_itemid" edge="1">
          <mxGeometry relative="1" as="geometry" />
        </mxCell>
        <mxCell id="erd_conn_itemname" value="" style="endArrow=none;html=1;rounded=0;" parent="erd_root" source="erd_item" target="erd_itemname" edge="1">
          <mxGeometry relative="1" as="geometry" />
        </mxCell>
        <mxCell id="erd_conn_quantity" value="" style="endArrow=none;html=1;rounded=0;" parent="erd_root" source="erd_item" target="erd_quantity" edge="1">
          <mxGeometry relative="1" as="geometry" />
        </mxCell>
        <mxCell id="erd_conn_user_manages" value="" style="endArrow=none;html=1;rounded=0;" parent="erd_root" source="erd_user" target="erd_manages" edge="1">
          <mxGeometry relative="1" as="geometry" />
        </mxCell>
        <mxCell id="erd_cardinality_1" value="1" style="text;html=1;align=center;verticalAlign=middle;resizable=0;points=[];autosize=1;" parent="erd_root" vertex="1">
          <mxGeometry x="460" y="180" width="30" height="20" as="geometry" />
        </mxCell>
        <mxCell id="erd_conn_manages_item" value="" style="endArrow=none;html=1;rounded=0;" parent="erd_root" source="erd_manages" target="erd_item" edge="1">
          <mxGeometry relative="1" as="geometry" />
        </mxCell>
        <mxCell id="erd_cardinality_n" value="N" style="text;html=1;align=center;verticalAlign=middle;resizable=0;points=[];autosize=1;" parent="erd_root" vertex="1">
          <mxGeometry x="460" y="280" width="30" height="20" as="geometry" />
        </mxCell>
        <mxCell id="erd_conn_category_contains" value="" style="endArrow=none;html=1;rounded=0;" parent="erd_root" source="erd_category" target="erd_contains" edge="1">
          <mxGeometry relative="1" as="geometry" />
        </mxCell>
        <mxCell id="erd_cardinality_m" value="M" style="text;html=1;align=center;verticalAlign=middle;resizable=0;points=[];autosize=1;" parent="erd_root" vertex="1">
          <mxGeometry x="360" y="310" width="30" height="20" as="geometry" />
        </mxCell>
        <mxCell id="erd_conn_contains_item" value="" style="endArrow=none;html=1;rounded=0;" parent="erd_root" source="erd_contains" target="erd_item" edge="1">
          <mxGeometry relative="1" as="geometry" />
        </mxCell>
        <mxCell id="erd_cardinality_n_2" value="N" style="text;html=1;align=center;verticalAlign=middle;resizable=0;points=[];autosize=1;" parent="erd_root" vertex="1">
          <mxGeometry x="210" y="340" width="30" height="20" as="geometry" />
        </mxCell>
        <mxCell id="erd_conn_user_performs" value="" style="endArrow=none;html=1;rounded=0;" parent="erd_root" source="erd_user" target="erd_performs" edge="1">
          <mxGeometry relative="1" as="geometry" />
        </mxCell>
        <mxCell id="erd_cardinality_1_2" value="1" style="text;html=1;align=center;verticalAlign=middle;resizable=0;points=[];autosize=1;" parent="erd_root" vertex="1">
          <mxGeometry x="580" y="120" width="30" height="20" as="geometry" />
        </mxCell>
        <mxCell id="erd_conn_performs_stockmovement" value="" style="endArrow=none;html=1;rounded=0;" parent="erd_root" source="erd_performs" target="erd_stockmovement" edge="1">
          <mxGeometry relative="1" as="geometry" />
        </mxCell>
        <mxCell id="erd_cardinality_n_3" value="N" style="text;html=1;align=center;verticalAlign=middle;resizable=0;points=[];autosize=1;" parent="erd_root" vertex="1">
          <mxGeometry x="730" y="160" width="30" height="20" as="geometry" />
        </mxCell>
        <mxCell id="erd_conn_user_generates" value="" style="endArrow=none;html=1;rounded=0;" parent="erd_root" source="erd_user" target="erd_generates" edge="1">
          <mxGeometry relative="1" as="geometry" />
        </mxCell>
        <mxCell id="erd_cardinality_1_4" value="1" style="text;html=1;align=center;verticalAlign=middle;resizable=0;points=[];autosize=1;" parent="erd_root" vertex="1">
          <mxGeometry x="345" y="150" width="30" height="20" as="geometry" />
        </mxCell>
        <mxCell id="erd_conn_generates_report" value="" style="endArrow=none;html=1;rounded=0;" parent="erd_root" source="erd_generates" target="erd_report" edge="1">
          <mxGeometry relative="1" as="geometry" />
        </mxCell>
        <mxCell id="erd_cardinality_n_5" value="N" style="text;html=1;align=center;verticalAlign=middle;resizable=0;points=[];autosize=1;" parent="erd_root" vertex="1">
          <mxGeometry x="145" y="160" width="30" height="20" as="geometry" />
        </mxCell>
      </root>
    </mxGraphModel>
  </diagram>
  <diagram name="DFD" id="DFD">
    <mxGraphModel dx="1100" dy="580" grid="1" gridSize="10" guides="1" tooltips="1" connect="1" arrows="1" fold="1" page="1" pageScale="1" pageWidth="1169" pageHeight="827" math="0" shadow="0">
      <root>
        <mxCell id="0" />
        <mxCell id="dfd_root" parent="0" />
        <mxCell id="dfd_user" value="USER" style="whiteSpace=wrap;html=1;" parent="dfd_root" vertex="1">
          <mxGeometry x="100" y="200" width="120" height="60" as="geometry" />
        </mxCell>
        <mxCell id="dfd_auth1" value="1.0&#xa;AUTHENTICATION" style="whiteSpace=wrap;html=1;" parent="dfd_root" vertex="1">
          <mxGeometry x="300" y="100" width="120" height="60" as="geometry" />
        </mxCell>
        <mxCell id="dfd_inventory2" value="2.0&#xa;INVENTORY" style="whiteSpace=wrap;html=1;" parent="dfd_root" vertex="1">
          <mxGeometry x="300" y="215" width="120" height="60" as="geometry" />
        </mxCell>
        <mxCell id="dfd_stockmovement2_1" value="2.1&#xa;STOCK&#xa;MOVEMENT" style="whiteSpace=wrap;html=1;" parent="dfd_root" vertex="1">
          <mxGeometry x="500" y="215" width="120" height="60" as="geometry" />
        </mxCell>
        <mxCell id="dfd_category3" value="3.0&#xa;CATEGORY" style="whiteSpace=wrap;html=1;" parent="dfd_root" vertex="1">
          <mxGeometry x="300" y="350" width="120" height="60" as="geometry" />
        </mxCell>
        <mxCell id="dfd_report4" value="4.0&#xa;REPORT" style="whiteSpace=wrap;html=1;" parent="dfd_root" vertex="1">
          <mxGeometry x="300" y="460" width="120" height="60" as="geometry" />
        </mxCell>
        <mxCell id="dfd_d1" value="D1 USER" style="html=1;dashed=0;whiteSpace=wrap;shape=mxgraph.dfd.dataStore" parent="dfd_root" vertex="1">
          <mxGeometry x="740" y="115" width="100" height="30" as="geometry" />
        </mxCell>
        <mxCell id="dfd_d2" value="D2 INVENTORY" style="html=1;dashed=0;whiteSpace=wrap;shape=mxgraph.dfd.dataStore" parent="dfd_root" vertex="1">
          <mxGeometry x="740" y="384" width="100" height="30" as="geometry" />
        </mxCell>
        <mxCell id="dfd_flow_auth" value="Login&#xa;Credentials" style="endArrow=classic;html=1;rounded=0;" parent="dfd_root" source="dfd_user" target="dfd_auth1" edge="1">
          <mxGeometry relative="1" as="geometry" />
        </mxCell>
        <mxCell id="dfd_flow_auth_d1" value="User&#xa;Data" style="endArrow=classic;html=1;rounded=0;" parent="dfd_root" source="dfd_auth1" target="dfd_d1" edge="1">
          <mxGeometry relative="1" as="geometry" />
        </mxCell>
        <mxCell id="dfd_flow_inventory" value="Item&#xa;Details" style="endArrow=classic;html=1;rounded=0;" parent="dfd_root" source="dfd_user" target="dfd_inventory2" edge="1">
          <mxGeometry relative="1" as="geometry" />
        </mxCell>
        <mxCell id="dfd_flow_inventory_d2" value="Inventory&#xa;Data" style="endArrow=classic;html=1;rounded=0;" parent="dfd_root" source="dfd_inventory2" target="dfd_d2" edge="1">
          <mxGeometry relative="1" as="geometry" />
        </mxCell>
        <mxCell id="dfd_flow_inventory_stock" value="Stock&#xa;Changes" style="endArrow=classic;html=1;rounded=0;" parent="dfd_root" source="dfd_inventory2" target="dfd_stockmovement2_1" edge="1">
          <mxGeometry relative="1" as="geometry" />
        </mxCell>
        <mxCell id="dfd_flow_stock_d2" value="Updated&#xa;Inventory" style="endArrow=classic;html=1;rounded=0;" parent="dfd_root" source="dfd_stockmovement2_1" target="dfd_d2" edge="1">
          <mxGeometry relative="1" as="geometry" />
        </mxCell>
        <mxCell id="dfd_flow_category" value="Category&#xa;Details" style="endArrow=classic;html=1;rounded=0;" parent="dfd_root" source="dfd_user" target="dfd_category3" edge="1">
          <mxGeometry relative="1" as="geometry" />
        </mxCell>
        <mxCell id="dfd_flow_category_d2" value="Category&#xa;Data" style="endArrow=classic;html=1;rounded=0;" parent="dfd_root" source="dfd_category3" target="dfd_d2" edge="1">
          <mxGeometry relative="1" as="geometry" />
        </mxCell>
        <mxCell id="dfd_flow_report" value="Report&#xa;Parameters" style="endArrow=classic;html=1;rounded=0;" parent="dfd_root" source="dfd_user" target="dfd_report4" edge="1">
          <mxGeometry relative="1" as="geometry" />
        </mxCell>
        <mxCell id="dfd_flow_report_d2" value="Report&#xa;Data" style="endArrow=classic;html=1;rounded=0;" parent="dfd_root" source="dfd_report4" target="dfd_d2" edge="1">
          <mxGeometry relative="1" as="geometry">
            <Array as="points">
              <mxPoint x="730" y="470" />
            </Array>
          </mxGeometry>
        </mxCell>
        <mxCell id="dfd_flow_d1_auth" value="User&#xa;Info" style="endArrow=classic;html=1;rounded=0;" parent="dfd_root" source="dfd_d1" target="dfd_auth1" edge="1">
          <mxGeometry relative="1" as="geometry" />
        </mxCell>
        <mxCell id="dfd_flow_d2_inventory" value="Search&#xa;Results" style="endArrow=classic;html=1;rounded=0;" parent="dfd_root" source="dfd_d2" target="dfd_inventory2" edge="1">
          <mxGeometry x="0.2412" relative="1" as="geometry">
            <Array as="points">
              <mxPoint x="520" y="350" />
            </Array>
            <mxPoint as="offset" />
          </mxGeometry>
        </mxCell>
        <mxCell id="dfd_flow_d2_category" value="Category&#xa;List" style="endArrow=classic;html=1;rounded=0;" parent="dfd_root" source="dfd_d2" target="dfd_category3" edge="1">
          <mxGeometry relative="1" as="geometry" />
        </mxCell>
        <mxCell id="dfd_flow_d2_report" value="Report&#xa;Data" style="endArrow=classic;html=1;rounded=0;" parent="dfd_root" source="dfd_d2" target="dfd_report4" edge="1">
          <mxGeometry relative="1" as="geometry" />
        </mxCell>
      </root>
    </mxGraphModel>
  </diagram>
</mxfile>
